<?xml version="1.0" encoding="utf-8"?>
<!-- Generator: Adobe Illustrator 22.0.1, SVG Export Plug-In . SVG Version: 6.00 Build 0)  -->
<svg version="1.1" id="Layer_1" xmlns="http://www.w3.org/2000/svg" xmlns:xlink="http://www.w3.org/1999/xlink" x="0px" y="0px"
	 viewBox="0 0 79.2 79.1" style="enable-background:new 0 0 79.2 79.1;" xml:space="preserve">
<style type="text/css">
	.st0{fill:#555D66;}
</style>
<path class="st0" d="M62.1,11.6C49.8-0.7,29.8-0.7,17.4,11.5l-0.1,0.1C4.9,24,4.9,44.1,17.3,56.4l19.1,19.1c0.8,0.8,1.9,1.2,3,1.2
	c1.1,0,2.2-0.4,3-1.2c1.7-1.7,1.7-4.4,0-6L23.3,50.4c-9-9-9-23.6-0.1-32.7l0.1-0.1c9-9,23.7-9,32.7,0c7.4,7.4,8.5,20.1,2.5,29.5
	c-1.3,2-0.7,4.6,1.3,5.9c2,1.3,4.6,0.7,5.9-1.3C73.9,38.8,72.4,22,62.1,11.6 M54.4,57.4c1.7,1.7,1.7,4.4,0,6c-0.8,0.8-1.9,1.3-3,1.3
	c-1.1,0-2.2-0.4-3-1.2L29.3,44.4c-5.7-5.7-5.7-15,0-20.7c2.8-2.8,6.4-4.3,10.3-4.3h0c3.9,0,7.6,1.5,10.3,4.3
	c3.8,3.8,5.2,9.4,3.7,14.5c-0.7,2.3-3,3.5-5.3,2.9c-2.3-0.7-3.5-3-2.9-5.3c0.6-2.1,0.1-4.5-1.5-6.1c-1.2-1.2-2.7-1.8-4.3-1.8h0
	c-1.6,0-3.2,0.6-4.3,1.8c-2.4,2.4-2.4,6.2,0,8.6L54.4,57.4"/>
</svg>
